<svg width="32" height="32" viewBox="0 0 32 32" fill="none" xmlns="http://www.w3.org/2000/svg">
<path d="M18 28C20.7614 28 23.0507 25.7396 22.5021 23.0332C22.2103 21.5936 21.7915 20.1816 21.2492 18.8156C20.0934 15.9038 18.3992 13.258 16.2635 11.0294C14.1277 8.80083 11.5922 7.033 8.80172 5.82689C7.55517 5.2881 6.26864 4.86612 4.95736 4.56411C2.26639 3.94432 0 6.23858 0 9V23C0 25.7614 2.23858 28 5 28H18Z" fill="#5D87FF"/>
<g style="mix-blend-mode:multiply">
<path d="M14 28C11.2386 28 8.94929 25.7396 9.49792 23.0332C9.78975 21.5936 10.2085 20.1816 10.7508 18.8156C11.9066 15.9038 13.6008 13.258 15.7365 11.0294C17.8723 8.80083 20.4078 7.033 23.1983 5.82689C24.4448 5.2881 25.7314 4.86612 27.0426 4.56411C29.7336 3.94432 32 6.23858 32 9V23C32 25.7614 29.7614 28 27 28H14Z" fill="#49BEFF"/>
</g>
</svg>
