<svg width="24" height="25" viewBox="0 0 24 25" fill="none" xmlns="http://www.w3.org/2000/svg">
<g clip-path="url(#clip0_2658_3441)">
<path d="M17.5 7.7C19.2 8.7 20 10.5 20 12.5C20 15 17.5 17 15 17H12.4L11.8 20.6C11.7532 20.8293 11.6276 21.0349 11.4449 21.1811C11.2621 21.3272 11.0339 21.4047 10.8 21.4H8.1C8.02501 21.4015 7.95064 21.3861 7.88239 21.355C7.81415 21.3239 7.75378 21.2778 7.70577 21.2202C7.65775 21.1626 7.62331 21.0949 7.605 21.0222C7.58669 20.9494 7.58498 20.8735 7.6 20.8L7.8 19.4M10 13.5H12.5C15 13.5 17.5 11 17.5 8.5C17.5 5.5 15.6 3.5 12.5 3.5H7C6.5 3.5 6 4 6 4.5L4 18.5C4 19 4.5 19.5 5 19.5H7.8L9 14.5C9.1 13.9 9.4 13.5 10 13.5Z" stroke="#5D87FF" stroke-width="1.5" stroke-linecap="round" stroke-linejoin="round"/>
</g>
<defs>
<clipPath id="clip0_2658_3441">
<rect width="24" height="24" fill="white" transform="translate(0 0.5)"/>
</clipPath>
</defs>
</svg>
