<svg width="24" height="25" viewBox="0 0 24 25" fill="none" xmlns="http://www.w3.org/2000/svg">
<g clip-path="url(#clip0_2658_3457)">
<path d="M4.05005 11.5001C4.30293 9.5708 5.25027 7.79984 6.71473 6.51868C8.17918 5.23753 10.0604 4.53401 12.0061 4.53983C13.9519 4.54565 15.8288 5.2604 17.2856 6.55029C18.7423 7.84018 19.6791 9.61678 19.9204 11.5475C20.1618 13.4783 19.6912 15.4308 18.5967 17.0396C17.5023 18.6483 15.8591 19.8031 13.9746 20.2877C12.0902 20.7723 10.0937 20.5535 8.35892 19.6722C6.62417 18.791 5.27005 17.3077 4.55005 15.5001M4.05005 20.5001V15.5001H9.05005" stroke="#FA896B" stroke-width="2" stroke-linecap="round" stroke-linejoin="round"/>
</g>
<defs>
<clipPath id="clip0_2658_3457">
<rect width="24" height="24" fill="white" transform="translate(0 0.5)"/>
</clipPath>
</defs>
</svg>
