<svg width="24" height="25" viewBox="0 0 24 25" fill="none" xmlns="http://www.w3.org/2000/svg">
<g clip-path="url(#clip0_2658_3445)">
<path d="M17 8.5V5.5C17 5.23478 16.8946 4.98043 16.7071 4.79289C16.5196 4.60536 16.2652 4.5 16 4.5H6C5.46957 4.5 4.96086 4.71071 4.58579 5.08579C4.21071 5.46086 4 5.96957 4 6.5M4 6.5C4 7.03043 4.21071 7.53914 4.58579 7.91421C4.96086 8.28929 5.46957 8.5 6 8.5H18C18.2652 8.5 18.5196 8.60536 18.7071 8.79289C18.8946 8.98043 19 9.23478 19 9.5V12.5M4 6.5V18.5C4 19.0304 4.21071 19.5391 4.58579 19.9142C4.96086 20.2893 5.46957 20.5 6 20.5H18C18.2652 20.5 18.5196 20.3946 18.7071 20.2071C18.8946 20.0196 19 19.7652 19 19.5V16.5" stroke="#13DEB9" stroke-width="1.5" stroke-linecap="round" stroke-linejoin="round"/>
<path d="M20 12.5V16.5H16C15.4696 16.5 14.9609 16.2893 14.5858 15.9142C14.2107 15.5391 14 15.0304 14 14.5C14 13.9696 14.2107 13.4609 14.5858 13.0858C14.9609 12.7107 15.4696 12.5 16 12.5H20Z" stroke="#13DEB9" stroke-width="1.5" stroke-linecap="round" stroke-linejoin="round"/>
</g>
<defs>
<clipPath id="clip0_2658_3445">
<rect width="24" height="24" fill="white" transform="translate(0 0.5)"/>
</clipPath>
</defs>
</svg>
